<svg xmlns="http://www.w3.org/2000/svg" xmlns:xlink="http://www.w3.org/1999/xlink" width="1920" height="1080" viewBox="0 0 1920 1080">
    <defs>
        <filter id="i3bb9ow60c" color-interpolation-filters="auto">
            <feColorMatrix in="SourceGraphic" values="0 0 0 0 0.886275 0 0 0 0 0.996078 0 0 0 0 0.898039 0 0 0 1.000000 0"/>
        </filter>
        <filter id="9a07dkhsge" width="162.2%" height="162.2%" x="-31.1%" y="-31.1%" filterUnits="objectBoundingBox">
            <feGaussianBlur in="SourceGraphic" stdDeviation="50"/>
        </filter>
        <linearGradient id="04pts51ord" x1="86.52%" x2="45.14%" y1="28.679%" y2="76.256%">
            <stop offset="0%" stop-color="#1CD712" stop-opacity=".138"/>
            <stop offset="100%" stop-color="#15BD30" stop-opacity="0"/>
        </linearGradient>
        <path id="fxqdr19yea" d="M0 0H1920V1080H0z"/>
    </defs>
    <g fill="none" fill-rule="evenodd">
        <g>
            <mask id="xix1pkb5lb" fill="#fff">
                <use xlink:href="#fxqdr19yea"/>
            </mask>
            <use fill="#FFF" xlink:href="#fxqdr19yea"/>
            <g mask="url(#xix1pkb5lb)">
                <g transform="translate(-472.000000, -529.000000)">
                    <rect width="2229" height="700" x="354.496" y="841.498" fill="#F7FFFB" rx="64" transform="translate(1468.996417, 1191.497756) rotate(-8.000000) translate(-1468.996417, -1191.497756)"/>
                    <g>
                        <path stroke="#FFF" stroke-width=".663" d="M0 363.54c7.686-5.809 21.808 1.554 30.524 5.817 8.716 4.264 15.201 11.792 20.542 19.66 13.715 20.2 21.372 43.547 32.23 65.29 10.858 21.745 26.219 42.998 49.18 52.78 35.843 15.27 76.646-1.602 113.362-14.82 9.609-3.46 19.814-6.724 29.946-5.16 12.972 2 23.47 11.764 29.51 22.962 6.041 11.2 8.384 23.836 10.927 36.21 8.188 39.835 20.026 80.65 47.714 111.349 27.686 30.698 88.664 58.64 155.657 33.873" transform="translate(973.635016, 1027.440990) rotate(127.000000) translate(-973.635016, -1027.440990) translate(122.506987, 449.688842)"/>
                        <g filter="url(#i3bb9ow60c)" transform="translate(973.635016, 1027.440990) rotate(127.000000) translate(-973.635016, -1027.440990) translate(122.506987, 449.688842)">
                            <g stroke="#FFF">
                                <path stroke-width=".821" d="M0 45.101c9.515-7.192 23.569-6.775 34.36-1.495 10.79 5.277 18.82 14.598 25.43 24.337 16.98 25.01 26.462 53.913 39.905 80.833 13.442 26.92 32.46 53.232 60.886 65.342 44.375 18.905 94.892-1.983 140.35-18.347 11.895-4.283 24.53-8.325 37.075-6.389 16.06 2.477 29.057 14.564 36.535 28.43 7.479 13.864 10.38 29.509 13.529 44.826 10.137 49.318 24.793 99.849 59.07 137.855 34.28 38.005 109.772 72.598 192.713 41.935" transform="translate(1119.332439, 577.752149) rotate(-120.000000) translate(-1119.332439, -577.752149) translate(701.559983, 145.850972)"/>
                                <path stroke-width=".814" d="M638.538 445.282c-46.56 16.142-90.584 10.484-126.196-4.675-25.418-10.82-46.486-26.44-60.723-42.647-13.202-14.972-23.649-31.725-32.217-49.414-3.323-6.865-6.361-13.871-9.17-20.93-6.65-16.714-11.931-33.701-16.366-50.65-1.302-4.972-2.537-9.941-3.718-14.892-2.49-10.429-4.843-20.993-8.738-30.96-1.587-4.08-3.448-8.057-5.691-11.907-3.712-6.318-8.665-12.302-14.545-17.272-6.454-5.454-13.833-9.58-21.955-11.126-3.136-.59-6.269-.79-9.39-.687-8.949.28-17.83 2.972-26.313 5.792-8.457 2.808-17.098 5.781-25.844 8.606-22.239 7.185-45.153 13.365-67.9 13.45-14.56.075-29.046-2.31-43.044-8.425-9.147-3.995-17.39-9.37-24.833-15.664-15.733-13.303-27.796-30.726-37.357-48.387-9.633-17.837-17.456-36.55-27.068-54.54-4.42-8.256-9.205-16.362-14.705-24.126-6.813-9.61-14.994-18.861-25.86-24.194-10.868-5.335-24.91-5.95-34.513.86" transform="translate(1119.332439, 577.752149) rotate(-120.000000) translate(-1119.332439, -577.752149) translate(701.559983, 145.850972)"/>
                                <path stroke-width=".808" d="M638.258 447.716c-44.768 14.408-86.989 7.398-121.622-8.7-24.648-11.456-45.325-27.447-59.5-44.01-13.106-15.197-23.657-32.073-32.52-49.738-3.43-6.852-6.607-13.823-9.586-20.784-7.05-16.478-12.82-32.852-17.681-49.119-1.426-4.773-2.783-9.536-4.085-14.276-2.746-9.984-5.34-20.075-9.42-29.562-1.656-3.887-3.582-7.677-5.912-11.347-3.832-6.034-8.938-11.78-14.89-16.769-6.533-5.475-13.726-9.817-21.572-11.597-3.028-.688-6.046-.979-9.05-.972-8.599-.011-17.135 2.33-25.283 4.794-8.12 2.45-16.42 5.062-24.824 7.529-21.365 6.276-43.384 11.525-65.7 10.83-14.281-.402-28.676-3.165-42.702-9.444-9.162-4.1-17.49-9.496-25.061-15.715-16.002-13.143-28.433-29.995-38.431-47.043-10.052-17.224-18.345-35.268-28.388-52.825-4.625-8.059-9.596-16.018-15.256-23.676-7.012-9.48-15.348-18.664-26.288-24.051-10.945-5.39-24.972-6.205-34.666.223" transform="translate(1119.332439, 577.752149) rotate(-120.000000) translate(-1119.332439, -577.752149) translate(701.559983, 145.850972)"/>
                                <path stroke-width=".801" d="M638.955 449.782c-42.978 12.674-83.385 4.322-117.048-12.724-23.873-12.089-44.117-28.492-58.28-45.375-12.969-15.455-23.661-32.42-32.82-50.061-3.54-6.839-6.853-13.774-10.001-20.635-7.451-16.243-13.713-32.003-18.996-47.591-1.55-4.573-3.031-9.13-4.452-13.66-3.002-9.538-5.864-19.144-10.103-28.161-1.735-3.69-3.722-7.295-6.133-10.788-3.966-5.746-9.212-11.26-15.234-16.265-6.615-5.495-13.621-10.045-21.19-12.07-2.921-.781-5.824-1.16-8.708-1.257-8.254-.28-16.442 1.686-24.256 3.796-7.784 2.093-15.744 4.342-23.803 6.451-20.494 5.369-41.613 9.634-63.503 8.21-13.998-.91-28.303-4.019-42.356-10.463-9.18-4.205-17.59-9.62-25.288-15.765-16.274-12.983-29.073-29.266-39.509-45.7-10.47-16.611-19.234-33.986-29.707-51.11-4.83-7.86-9.987-15.672-15.807-23.224-7.213-9.352-15.7-18.467-26.715-23.909-11.022-5.445-25.037-6.459-34.82-.412" transform="translate(1119.332439, 577.752149) rotate(-120.000000) translate(-1119.332439, -577.752149) translate(701.559983, 145.850972)"/>
                                <path stroke-width=".794" d="M640.57 451.535c-41.187 10.941-79.775 1.253-112.476-16.748-23.093-12.713-42.94-29.51-57.06-46.738-12.858-15.69-23.665-32.769-33.118-50.385-3.65-6.825-7.1-13.725-10.418-20.486-7.85-16.008-14.605-31.156-20.312-46.062-1.675-4.374-3.276-8.726-4.82-13.044-3.256-9.094-6.368-18.222-10.784-26.762-1.806-3.496-3.864-6.914-6.353-10.229-4.1-5.457-9.487-10.74-15.579-15.76-6.695-5.517-13.516-10.275-20.808-12.542-2.813-.875-5.6-1.346-8.366-1.543-7.907-.564-15.75 1.043-23.227 2.798-7.449 1.735-15.066 3.623-22.782 5.375-19.621 4.46-39.842 7.777-61.306 5.588-13.716-1.398-27.931-4.874-42.014-11.48-9.194-4.312-17.687-9.747-25.513-15.816-16.544-12.825-29.747-28.512-40.586-44.359-10.925-15.974-20.122-32.703-31.027-49.394-5.034-7.661-10.378-15.326-16.357-22.774C70.25 51.952 61.61 42.905 50.52 37.41c-11.1-5.502-25.1-6.714-34.973-1.049" transform="translate(1119.332439, 577.752149) rotate(-120.000000) translate(-1119.332439, -577.752149) translate(701.559983, 145.850972)"/>
                                <path stroke-width=".787" d="M643.041 453.032c-39.396 9.207-76.158-1.806-107.902-20.774-22.311-13.332-41.766-30.524-55.839-48.1-12.75-15.925-23.67-33.119-33.418-50.711-3.759-6.81-7.346-13.674-10.835-20.337-8.251-15.773-15.496-30.307-21.626-44.533-1.8-4.174-3.525-8.32-5.19-12.428-3.51-8.65-6.872-17.297-11.463-25.361-1.88-3.303-4.007-6.533-6.575-9.67-4.235-5.17-9.762-10.22-15.922-15.257-6.778-5.538-13.41-10.504-20.427-13.014-2.705-.968-5.38-1.532-8.025-1.828-7.562-.848-15.057.399-22.198 1.8-7.112 1.378-14.39 2.904-21.763 4.297-18.749 3.552-38.068 5.921-59.106 2.968-13.434-1.886-27.56-5.728-41.67-12.5-9.21-4.415-17.788-9.872-25.743-15.864-16.813-12.667-30.393-27.776-41.66-43.016-11.351-15.355-21.012-31.422-32.347-47.68-5.239-7.463-10.77-14.98-16.908-22.323-7.613-9.092-16.405-18.072-27.57-23.622-11.177-5.556-25.164-6.968-35.126-1.684" transform="translate(1119.332439, 577.752149) rotate(-120.000000) translate(-1119.332439, -577.752149) translate(701.559983, 145.850972)"/>
                                <path stroke-width=".78" d="M646.31 454.324c-37.606 7.473-72.536-4.855-103.329-24.798-21.526-13.94-40.592-31.54-54.617-49.463-12.644-16.158-23.677-33.466-33.72-51.035-3.867-6.797-7.593-13.626-11.249-20.19-8.652-15.537-16.389-29.459-22.942-43.004-1.924-3.973-3.773-7.914-5.558-11.81-3.765-8.206-7.376-16.374-12.145-23.963-1.952-3.107-4.149-6.152-6.796-9.11-4.371-4.885-10.037-9.7-16.267-14.754-6.857-5.558-13.303-10.73-20.045-13.485-2.596-1.061-5.157-1.718-7.682-2.115-7.218-1.13-14.365-.243-21.17.804-6.776 1.02-13.713 2.184-20.743 3.22-17.877 2.644-36.294 4.065-56.908.347-13.151-2.372-27.189-6.583-41.327-13.52-9.224-4.52-17.886-9.996-25.968-15.914-17.085-12.507-31.038-27.038-42.737-41.674-11.777-14.733-21.901-30.138-33.667-45.964-5.443-7.264-11.16-14.635-17.458-21.872-7.814-8.963-16.759-17.873-27.998-23.477-11.254-5.614-25.23-7.224-35.28-2.323" transform="translate(1119.332439, 577.752149) rotate(-120.000000) translate(-1119.332439, -577.752149) translate(701.559983, 145.850972)"/>
                                <path stroke-width=".775" d="M650.315 455.469c-35.814 5.738-68.906-7.893-98.754-28.824-20.739-14.543-39.42-32.554-53.397-50.826-12.537-16.39-23.683-33.815-34.02-51.36-3.976-6.782-7.838-13.577-11.665-20.04-9.053-15.303-17.28-28.61-24.258-41.476-2.047-3.774-4.02-7.51-5.924-11.194-4.022-7.762-7.882-15.448-12.827-22.563-2.024-2.912-4.293-5.772-7.017-8.55-4.509-4.6-10.311-9.182-16.612-14.25-6.938-5.58-13.195-10.96-19.662-13.959-2.49-1.154-4.936-1.903-7.341-2.399-6.875-1.414-13.672-.886-20.143-.196-6.438.663-13.035 1.466-19.722 2.144-17.002 1.735-34.519 2.212-54.71-2.273-12.867-2.858-26.817-7.438-40.982-14.538-9.242-4.625-17.986-10.123-26.196-15.964-17.355-12.35-31.682-26.302-43.813-40.333-12.2-14.112-22.757-28.882-34.987-44.248-5.633-7.079-11.55-14.29-18.007-21.421-8.014-8.835-17.113-17.677-28.427-23.336-11.33-5.668-25.292-7.477-35.433-2.957" transform="translate(1119.332439, 577.752149) rotate(-120.000000) translate(-1119.332439, -577.752149) translate(701.559983, 145.850972)"/>
                                <path stroke-width=".768" d="M654.998 456.517c-34.023 4.007-65.275-10.917-94.181-32.847-19.948-15.136-38.245-33.567-52.175-52.19-12.432-16.62-23.687-34.163-34.32-51.684-4.086-6.769-8.085-13.528-12.082-19.892-9.453-15.068-18.17-27.762-25.571-39.947-2.173-3.574-4.267-7.104-6.294-10.578-4.277-7.316-8.384-14.52-13.51-21.163-2.095-2.716-4.434-5.39-7.236-7.99-4.647-4.316-10.585-8.662-16.957-13.748-7.019-5.6-13.086-11.186-19.28-14.43-2.38-1.246-4.715-2.09-7-2.683-6.532-1.699-12.977-1.516-19.114-1.194-6.101.319-12.357.747-18.7 1.066-16.131.827-32.742.36-52.51-4.893-12.585-3.345-26.447-8.294-40.642-15.558-9.257-4.73-18.085-10.248-26.42-16.014-17.627-12.19-32.328-25.564-44.891-38.99-12.625-13.492-23.643-27.604-36.306-42.533-5.838-6.881-11.942-13.943-18.56-20.97-8.214-8.705-17.464-17.479-28.854-23.193-11.407-5.724-25.355-7.732-35.586-3.593" transform="translate(1119.332439, 577.752149) rotate(-120.000000) translate(-1119.332439, -577.752149) translate(701.559983, 145.850972)"/>
                                <path stroke-width=".761" d="M660.3 457.526c-32.232 2.272-61.643-13.93-89.608-36.872-19.16-15.72-37.074-34.578-50.954-53.554-12.327-16.85-23.694-34.512-34.62-52.008-4.196-6.755-8.333-13.478-12.499-19.744-9.853-14.832-19.062-26.914-26.887-38.418-2.297-3.374-4.515-6.698-6.66-9.961-4.533-6.872-8.888-13.594-14.19-19.763-2.167-2.522-4.582-5.011-7.458-7.432-4.788-4.03-10.862-8.14-17.301-13.243-7.101-5.622-12.978-11.413-18.9-14.902-2.27-1.339-4.493-2.276-6.657-2.97-6.191-1.983-12.286-2.156-18.085-2.191-5.768-.036-11.682.027-17.681-.012-15.26-.08-30.966-1.491-50.314-7.514-12.297-3.827-26.074-9.147-40.296-16.574-9.273-4.837-18.184-10.374-26.649-16.066-17.895-12.03-32.969-24.826-45.965-37.647-13.047-12.871-24.53-26.326-37.626-40.819-6.041-6.685-12.332-13.597-19.11-20.518-8.415-8.576-17.818-17.281-29.281-23.049-11.486-5.78-25.42-7.987-35.74-4.231" transform="translate(1119.332439, 577.752149) rotate(-120.000000) translate(-1119.332439, -577.752149) translate(701.559983, 145.850972)"/>
                                <path stroke-width=".754" d="M666.159 458.546c-30.442.54-58.008-16.927-85.034-40.895-18.372-16.294-35.903-35.59-49.733-54.917-12.223-17.08-23.698-34.861-34.921-52.334-4.304-6.74-8.578-13.427-12.915-19.595-10.252-14.597-19.953-26.066-28.2-36.889-2.423-3.175-4.763-6.293-7.031-9.346-4.787-6.425-9.387-12.664-14.872-18.363-2.237-2.324-4.725-4.63-7.678-6.871-4.929-3.746-11.136-7.621-17.645-12.74-7.183-5.642-12.869-11.637-18.516-15.374-2.163-1.43-4.273-2.463-6.317-3.254-5.85-2.27-11.594-2.797-17.057-3.19-5.431-.39-11.004-.693-16.66-1.09-14.387-.987-29.187-3.341-48.115-10.133-12.013-4.31-25.703-10.003-39.953-17.594-9.289-4.941-18.284-10.5-26.877-16.116-18.165-11.87-33.608-24.088-47.04-36.305-13.47-12.25-25.418-25.047-38.947-39.102-6.245-6.49-12.722-13.253-19.66-20.07-8.614-8.445-18.17-17.08-29.708-22.904-11.563-5.837-25.486-8.242-35.894-4.868" transform="translate(1119.332439, 577.752149) rotate(-120.000000) translate(-1119.332439, -577.752149) translate(701.559983, 145.850972)"/>
                                <path stroke-width=".747" d="M672.516 459.663c-28.65-1.194-54.374-19.913-80.46-44.92-17.584-16.857-34.733-36.6-48.513-56.28-12.118-17.308-23.703-35.21-35.22-52.657-4.414-6.728-8.824-13.38-13.33-19.448-10.654-14.362-20.845-25.216-29.517-35.36-2.546-2.974-5.01-5.887-7.398-8.73-5.042-5.98-9.887-11.736-15.553-16.962-2.308-2.13-4.875-4.25-7.899-6.313-5.073-3.46-11.41-7.1-17.99-12.236-7.264-5.663-12.759-11.86-18.135-15.845-2.053-1.523-4.054-2.65-5.975-3.542-5.512-2.553-10.902-3.437-16.028-4.186-5.098-.747-10.328-1.412-15.64-2.167-13.515-1.895-27.41-5.189-45.917-12.754-11.727-4.792-25.332-10.858-39.609-18.614-9.304-5.045-18.384-10.623-27.103-16.164-18.437-11.713-34.25-23.352-48.118-34.963-13.888-11.63-26.305-23.768-40.267-37.387-6.45-6.292-13.113-12.907-20.21-19.619-8.814-8.315-18.523-16.884-30.137-22.761-11.638-5.891-25.548-8.496-36.044-5.503" transform="translate(1119.332439, 577.752149) rotate(-120.000000) translate(-1119.332439, -577.752149) translate(701.559983, 145.850972)"/>
                                <path stroke-width=".741" d="M679.312 461.022c-26.86-2.928-50.745-22.887-75.887-48.946-16.8-17.41-33.564-37.608-47.293-57.641-12.016-17.537-23.708-35.56-35.52-52.982-4.521-6.714-9.07-13.331-13.745-19.3-11.055-14.126-21.737-24.369-30.833-33.831-2.67-2.775-5.255-5.482-7.766-8.113-5.297-5.536-10.386-10.808-16.234-15.564-2.376-1.932-5.021-3.868-8.12-5.753-5.217-3.174-11.684-6.58-18.336-11.732-7.342-5.684-12.647-12.083-17.751-16.318-1.944-1.613-3.834-2.838-5.632-3.826-5.175-2.841-10.215-4.078-15-5.185-4.765-1.102-9.652-2.13-14.62-3.242-12.643-2.805-25.63-7.037-43.72-15.375-11.44-5.275-24.959-11.713-39.265-19.633-9.32-5.152-18.483-10.75-27.33-16.216-18.706-11.552-34.889-22.613-49.194-33.62-14.308-11.008-27.194-22.49-41.586-35.673-6.654-6.093-13.504-12.56-20.76-19.166-9.015-8.187-18.877-16.687-30.565-22.619-11.717-5.946-25.613-8.75-36.2-6.139" transform="translate(1119.332439, 577.752149) rotate(-120.000000) translate(-1119.332439, -577.752149) translate(701.559983, 145.850972)"/>
                                <path stroke-width=".734" d="M686.486 462.687c-25.068-4.662-47.119-25.847-71.313-52.97-16.02-17.957-32.395-38.618-46.07-59.005-11.916-17.763-23.715-35.907-35.821-53.306-4.633-6.701-9.318-13.281-14.163-19.15-11.454-13.892-22.63-23.522-32.147-32.303-2.796-2.577-5.505-5.077-8.135-7.497-5.551-5.093-10.88-9.88-16.915-14.164-2.446-1.737-5.171-3.487-8.34-5.194-5.365-2.89-11.96-6.06-18.68-11.229-7.425-5.704-12.54-12.304-17.37-16.789-1.836-1.704-3.614-3.026-5.29-4.112-4.839-3.13-9.525-4.72-13.974-6.183-4.43-1.458-8.972-2.85-13.598-4.32-11.771-3.711-23.851-8.881-41.521-17.995-11.153-5.754-24.59-12.568-38.922-20.651-9.336-5.257-18.583-10.875-27.557-16.265-18.977-11.395-35.528-21.878-50.27-32.28-14.727-10.388-28.082-21.209-42.907-33.957-6.859-5.896-13.894-12.214-21.31-18.714-9.216-8.059-19.23-16.49-30.993-22.476-11.793-6.003-25.676-9.005-36.351-6.776" transform="translate(1119.332439, 577.752149) rotate(-120.000000) translate(-1119.332439, -577.752149) translate(701.559983, 145.850972)"/>
                                <path stroke-width=".727" d="M693.979 464.718c-23.277-6.396-43.499-28.796-66.74-56.995-15.243-18.494-31.228-39.627-44.85-60.368-11.814-17.99-23.72-36.256-36.12-53.631-4.742-6.686-9.565-13.232-14.58-19.003-11.854-13.656-23.519-22.671-33.461-30.773-2.92-2.375-5.752-4.671-8.503-6.88-5.808-4.648-11.375-8.952-17.597-12.765-2.515-1.54-5.32-3.105-8.561-4.635-5.512-2.601-12.234-5.54-19.025-10.725-7.505-5.724-12.428-12.523-16.988-17.26-1.725-1.795-3.394-3.215-4.948-4.397-4.5-3.423-8.835-5.362-12.944-7.182-4.097-1.814-8.297-3.569-12.578-5.397-10.898-4.62-22.074-10.723-39.323-20.616-10.869-6.233-24.217-13.422-38.579-21.669-9.352-5.362-18.68-11-27.784-16.315-19.248-11.236-36.164-21.143-51.347-30.936-15.142-9.77-28.97-19.932-44.224-32.243-7.064-5.7-14.287-11.868-21.862-18.265-9.415-7.927-19.583-16.291-31.42-22.332-11.872-6.058-25.741-9.26-36.506-7.412" transform="translate(1119.332439, 577.752149) rotate(-120.000000) translate(-1119.332439, -577.752149) translate(701.559983, 145.850972)"/>
                                <path stroke-width=".72" d="M701.731 467.171c-21.486-8.129-39.886-31.732-62.167-61.017-14.472-19.025-30.06-40.634-43.628-61.734-11.714-18.215-23.726-36.603-36.421-53.954-4.851-6.673-9.812-13.182-14.995-18.854-12.255-13.421-24.411-21.824-34.778-29.244-3.043-2.177-5.998-4.267-8.87-6.265-6.063-4.203-11.868-8.024-18.278-11.365-2.583-1.346-5.47-2.722-8.781-4.074-5.663-2.313-12.51-5.02-19.37-10.223-7.586-5.745-12.32-12.741-16.607-17.732-1.616-1.884-3.175-3.404-4.606-4.682-4.162-3.715-8.145-6.005-11.916-8.18-3.765-2.17-7.62-4.288-11.558-6.474-10.025-5.528-20.294-12.566-37.124-23.237-10.583-6.71-23.846-14.277-38.235-22.688-9.37-5.467-18.782-11.126-28.01-16.365-19.52-11.077-36.804-20.407-52.424-29.594-15.56-9.152-29.861-18.652-45.545-30.527-7.27-5.503-14.677-11.523-22.412-17.813-9.616-7.8-19.936-16.096-31.848-22.19-11.948-6.114-25.805-9.514-36.659-8.049" transform="translate(1119.332439, 577.752149) rotate(-120.000000) translate(-1119.332439, -577.752149) translate(701.559983, 145.850972)"/>
                                <path stroke-width=".713" d="M709.681 470.109c-19.695-9.864-36.283-34.658-57.592-65.043-13.71-19.547-28.895-41.642-42.409-63.096-11.615-18.441-23.73-36.952-36.72-54.28-4.96-6.659-10.057-13.133-15.41-18.705-12.657-13.187-25.304-20.976-36.093-27.716-3.168-1.976-6.246-3.862-9.239-5.648-6.317-3.758-12.36-7.098-18.96-9.964-2.648-1.152-5.621-2.34-9.001-3.516-5.813-2.024-12.785-4.5-19.716-9.718-7.666-5.767-12.21-12.96-16.224-18.206-1.508-1.973-2.955-3.593-4.265-4.967-3.825-4.01-7.455-6.649-10.887-9.177-3.432-2.53-6.942-5.007-10.537-7.552-9.154-6.436-18.517-14.403-34.927-25.856-10.296-7.187-23.474-15.133-37.89-23.708-9.386-5.573-18.881-11.252-28.239-16.416-19.789-10.916-37.437-19.672-53.499-28.25-15.976-8.535-30.751-17.372-46.864-28.812-7.474-5.306-15.07-11.178-22.963-17.363-9.816-7.67-20.289-15.897-32.276-22.046C153.944 3.9 140.102.3 129.158 1.385" transform="translate(1119.332439, 577.752149) rotate(-120.000000) translate(-1119.332439, -577.752149) translate(701.559983, 145.850972)"/>
                                <path stroke-width=".708" d="M717.772 473.587c-17.905-11.596-32.69-37.574-53.019-69.068-12.952-20.063-27.73-42.646-41.187-64.459-11.517-18.665-23.737-37.3-37.021-54.603-5.069-6.646-10.304-13.084-15.828-18.557-13.055-12.952-26.193-20.128-37.407-26.188-3.293-1.777-6.494-3.455-9.606-5.031-6.573-3.313-12.85-6.174-19.642-8.565-2.715-.956-5.772-1.954-9.223-2.957-5.962-1.73-13.058-3.979-20.059-9.214-7.747-5.788-12.105-13.177-15.841-18.677-1.401-2.062-2.735-3.784-3.925-5.253-3.486-4.306-6.767-7.293-9.859-10.175-3.1-2.89-6.265-5.726-9.517-8.628-8.28-7.345-16.739-16.243-32.727-28.478-10.013-7.662-23.103-15.987-37.549-24.727-9.4-5.676-18.978-11.376-28.464-16.465-20.06-10.757-38.074-18.94-54.576-26.91-16.39-7.916-31.641-16.09-48.185-27.095-7.68-5.109-15.459-10.831-23.512-16.913-10.015-7.54-20.642-15.699-32.704-21.902C165.819 3.496 151.989-.3 140.956.401" transform="translate(1119.332439, 577.752149) rotate(-120.000000) translate(-1119.332439, -577.752149) translate(701.559983, 145.850972)"/>
                                <path stroke-width=".701" d="M725.941 477.667c-16.113-13.33-29.107-40.484-48.446-73.094-12.2-20.572-26.565-43.652-39.965-65.82-11.42-18.89-23.742-37.65-37.32-54.93-5.18-6.63-10.553-13.034-16.245-18.408-13.457-12.716-27.087-19.279-38.722-24.658-3.417-1.576-6.742-3.05-9.974-4.416-6.829-2.867-13.34-5.25-20.324-7.164-2.78-.763-5.924-1.57-9.442-2.397-6.116-1.44-13.334-3.46-20.405-8.712-7.827-5.808-11.999-13.392-15.46-19.148-1.293-2.15-2.515-3.976-3.582-5.539-3.147-4.605-6.077-7.939-8.83-11.173-2.768-3.249-5.589-6.446-8.496-9.706-7.41-8.252-14.964-18.078-30.53-31.097-9.729-8.137-22.733-16.842-37.205-25.745-9.416-5.783-19.08-11.502-28.692-16.516-20.33-10.6-38.708-18.207-55.65-25.567-16.807-7.302-32.533-14.81-49.507-25.38-7.884-4.912-15.848-10.487-24.062-16.462-10.218-7.411-20.995-15.502-33.131-21.76-12.18-6.281-25.997-10.277-37.12-9.957" transform="translate(1119.332439, 577.752149) rotate(-120.000000) translate(-1119.332439, -577.752149) translate(701.559983, 145.850972)"/>
                                <path stroke-width=".694" d="M734.13 482.406c-14.322-15.063-25.537-43.384-43.872-77.117-11.458-21.08-25.403-44.658-38.745-67.185-11.321-19.114-23.746-37.998-37.622-55.252-5.287-6.618-10.796-12.987-16.66-18.261-13.855-12.48-27.976-18.43-40.036-23.13-3.542-1.377-6.988-2.643-10.343-3.798-7.083-2.423-13.828-4.33-21.004-5.765-2.847-.57-6.076-1.184-9.664-1.838-6.267-1.145-13.61-2.94-20.75-8.209-7.907-5.827-11.892-13.607-15.077-19.62-1.185-2.238-2.292-4.167-3.24-5.823-2.804-4.905-5.386-8.585-7.803-12.172-2.431-3.609-4.91-7.164-7.475-10.781-6.537-9.16-13.188-19.914-28.332-33.72-9.444-8.61-22.36-17.696-36.861-26.763-9.431-5.888-19.178-11.628-28.918-16.566-20.6-10.44-39.343-17.475-56.727-24.225-17.222-6.685-33.423-13.528-50.826-23.665-8.091-4.713-16.24-10.14-24.614-16.01-10.415-7.283-21.346-15.305-33.558-21.617C189.746 4.552 175.94.357 164.73.296" transform="translate(1119.332439, 577.752149) rotate(-120.000000) translate(-1119.332439, -577.752149) translate(701.559983, 145.850972)"/>
                                <path stroke-width=".687" d="M742.279 487.85c-12.531-16.798-21.98-46.282-39.298-81.143-10.724-21.584-24.24-45.663-37.523-68.548-11.226-19.337-23.754-38.346-37.923-55.576-5.397-6.605-11.044-12.937-17.076-18.112-14.257-12.247-28.868-17.583-41.352-21.602-3.667-1.176-7.235-2.239-10.71-3.183-7.34-1.978-14.317-3.41-21.686-4.365-2.912-.377-6.228-.795-9.885-1.278-6.418-.848-13.883-2.419-21.095-7.705-7.988-5.848-11.788-13.821-14.695-20.092-1.077-2.326-2.07-4.359-2.897-6.108-2.462-5.206-4.694-9.232-6.775-13.17-2.096-3.97-4.234-7.883-6.455-11.859-5.666-10.068-11.415-21.748-26.134-36.34-9.161-9.082-21.988-18.552-36.517-27.782-9.447-5.993-19.279-11.753-29.145-16.615-20.871-10.282-39.977-16.746-57.805-22.883-17.634-6.072-34.313-12.248-52.143-21.95-8.298-4.515-16.632-9.795-25.164-15.56-10.618-7.152-21.701-15.106-33.988-21.473-12.334-6.393-26.125-10.786-37.425-11.23" transform="translate(1119.332439, 577.752149) rotate(-120.000000) translate(-1119.332439, -577.752149) translate(701.559983, 145.850972)"/>
                                <path stroke-width=".681" d="M750.328 494.043c-10.74-18.531-18.435-49.173-34.726-85.166-9.995-22.084-23.078-46.667-36.301-69.911-11.13-19.561-23.758-38.695-38.223-55.902-5.505-6.59-11.29-12.887-17.491-17.963-14.658-12.011-29.76-16.735-42.667-20.072-3.792-.979-7.485-1.835-11.08-2.568-7.592-1.532-14.805-2.493-22.367-2.965-2.978-.185-6.38-.407-10.105-.719-6.57-.55-14.158-1.899-21.438-7.2-8.07-5.87-11.687-14.037-14.314-20.565-.973-2.413-1.85-4.551-2.556-6.394-2.115-5.506-4.003-9.878-5.746-14.167-1.762-4.33-3.558-8.603-5.435-12.937-4.792-10.976-9.643-23.58-23.934-38.959-8.88-9.555-21.62-19.407-36.176-28.802-9.464-6.098-19.376-11.878-29.372-16.666-21.14-10.122-40.61-16.014-58.88-21.54-18.05-5.46-35.205-10.965-53.464-20.234-8.503-4.317-17.023-9.45-25.715-15.109-10.817-7.024-22.053-14.908-34.414-21.33-12.411-6.448-26.19-11.042-37.58-11.867" transform="translate(1119.332439, 577.752149) rotate(-120.000000) translate(-1119.332439, -577.752149) translate(701.559983, 145.850972)"/>
                                <path stroke-width=".674" d="M758.217 501.045c-8.95-20.265-14.904-52.063-30.152-89.19-9.276-22.585-21.917-47.673-35.082-71.275-11.033-19.784-23.762-39.043-38.521-56.226-5.615-6.577-11.537-12.837-17.908-17.815-15.059-11.776-30.653-15.886-43.983-18.543-3.914-.777-7.73-1.429-11.447-1.95-7.848-1.09-15.294-1.578-23.048-1.567-3.045.006-6.53-.017-10.326-.159-6.72-.25-14.433-1.38-21.784-6.696-8.15-5.891-11.584-14.253-13.931-21.037-.865-2.503-1.626-4.743-2.216-6.68-1.765-5.806-3.308-10.524-4.717-15.165-1.424-4.692-2.88-9.322-4.414-14.014-3.92-11.884-7.872-25.412-21.736-41.579-8.6-10.028-21.247-20.262-35.832-29.821-9.48-6.203-19.475-12.004-29.6-16.716-21.41-9.962-41.242-15.286-59.954-20.198-18.464-4.847-36.096-9.683-54.784-18.52-8.71-4.117-17.414-9.102-26.266-14.657-11.017-6.895-22.406-14.711-34.842-21.186-12.49-6.506-26.253-11.296-37.733-12.504" transform="translate(1119.332439, 577.752149) rotate(-120.000000) translate(-1119.332439, -577.752149) translate(701.559983, 145.850972)"/>
                                <path stroke-width=".667" d="M765.886 508.913c-7.158-21.998-11.384-54.952-25.577-93.216-8.565-23.083-20.76-48.674-33.861-72.637-10.94-20.006-23.769-39.392-38.822-56.55-5.726-6.562-11.784-12.789-18.324-17.667-15.459-11.54-31.543-15.037-45.298-17.014-4.038-.578-7.978-1.023-11.815-1.334-8.104-.644-15.785-.665-23.73-.166-3.11.195-6.683.371-10.546.4-6.872.05-14.709-.86-22.128-6.194-8.232-5.912-11.485-14.467-13.55-21.508-.761-2.59-1.401-4.935-1.874-6.965-1.417-6.106-2.614-11.17-3.688-16.162-1.088-5.054-2.204-10.042-3.394-15.092-3.048-12.793-6.103-27.244-19.538-44.2-8.32-10.5-20.876-21.116-35.488-30.84-9.495-6.308-19.576-12.129-29.826-16.766-21.683-9.803-41.88-14.557-61.032-18.855-18.877-4.237-36.987-8.4-56.105-16.804-8.914-3.92-17.805-8.759-26.815-14.208-11.217-6.764-22.76-14.512-35.27-21.043-12.566-6.56-26.317-11.55-37.886-13.14" transform="translate(1119.332439, 577.752149) rotate(-120.000000) translate(-1119.332439, -577.752149) translate(701.559983, 145.850972)"/>
                                <path stroke-width=".66" d="M773.277 517.704c-5.368-23.732-7.878-57.84-21.005-97.24-7.858-23.584-19.6-49.677-32.64-74-10.846-20.23-23.773-39.74-39.122-56.874-5.834-6.55-12.03-12.74-18.74-17.519-15.858-11.306-32.435-14.19-46.614-15.486-4.163-.378-8.224-.617-12.183-.718-8.358-.2-16.275.248-24.41 1.233-3.178.385-6.833.763-10.768.96-7.021.353-14.982-.339-22.473-5.69-8.313-5.933-11.384-14.683-13.167-21.98-.654-2.679-1.177-5.127-1.531-7.25-1.067-6.405-1.92-11.816-2.661-17.162-.749-5.411-1.526-10.76-2.374-16.168-2.175-13.7-4.334-29.074-17.34-46.82-8.04-10.97-20.503-21.971-35.144-31.859-9.51-6.413-19.674-12.254-30.052-16.815-21.953-9.646-42.513-13.831-62.11-17.514-19.29-3.626-37.878-7.116-57.424-15.089-9.12-3.72-18.195-8.412-27.364-13.756-11.419-6.635-23.113-14.316-35.7-20.9-12.641-6.616-26.38-11.804-38.037-13.775" transform="translate(1119.332439, 577.752149) rotate(-120.000000) translate(-1119.332439, -577.752149) translate(701.559983, 145.850972)"/>
                                <path stroke-width=".653" d="M780.327 527.475c-3.576-25.466-4.383-60.73-16.431-101.264-7.159-24.085-18.44-50.682-31.419-75.364-10.753-20.452-23.78-40.09-39.423-57.2-5.942-6.535-12.275-12.69-19.156-17.37-16.257-11.07-33.325-13.34-47.927-13.956-4.288-.178-8.474-.212-12.551-.102-8.615.246-16.768 1.16-25.093 2.634-3.244.574-6.982 1.152-10.989 1.519-7.168.654-15.256.18-22.817-5.187-8.394-5.953-11.284-14.898-12.785-22.452-.55-2.767-.953-5.317-1.189-7.535-.714-6.704-1.227-12.461-1.632-18.16-.413-5.77-.85-11.479-1.354-17.245-1.303-14.609-2.569-30.906-15.142-49.44-7.762-11.443-20.132-22.827-34.8-32.878-9.526-6.518-19.775-12.38-30.28-16.866-22.223-9.486-43.148-13.105-63.184-16.171-19.707-3.017-38.771-5.833-58.744-13.373-9.327-3.522-18.587-8.067-27.916-13.306-11.619-6.506-23.466-14.118-36.126-20.757-12.72-6.672-26.445-12.06-38.194-14.411" transform="translate(1119.332439, 577.752149) rotate(-120.000000) translate(-1119.332439, -577.752149) translate(701.559983, 145.850972)"/>
                                <path stroke-width=".648" d="M786.979 538.283c-1.786-27.2-.9-63.622-11.857-105.288-6.466-24.587-17.284-51.684-30.199-76.727-10.66-20.674-23.784-40.438-39.722-57.523-6.052-6.523-12.522-12.642-19.572-17.223-16.658-10.835-34.219-12.493-49.244-12.427-4.412.02-8.72.192-12.919.514-8.87.69-17.262 2.07-25.774 4.033-3.311.764-7.132 1.544-11.21 2.078-7.315.959-15.53.702-23.16-4.682-8.475-5.974-11.188-15.115-12.405-22.925-.444-2.855-.728-5.508-.846-7.82-.362-7-.532-13.106-.605-19.158-.074-6.13-.172-12.198-.333-18.322-.43-15.517-.803-32.738-12.943-52.061-7.485-11.914-19.76-23.682-34.457-33.896-9.542-6.624-19.874-12.506-30.508-16.916-22.493-9.328-43.78-12.38-64.26-14.83-20.12-2.407-39.66-4.548-60.063-11.658-9.533-3.322-18.977-7.72-28.467-12.855-11.818-6.376-23.818-13.92-36.554-20.612-12.797-6.728-26.508-12.315-38.345-15.048" transform="translate(1119.332439, 577.752149) rotate(-120.000000) translate(-1119.332439, -577.752149) translate(701.559983, 145.850972)"/>
                                <path stroke-width=".641" d="M793.019 550.186c.005-28.932 2.572-66.517-7.283-109.312-5.78-25.093-16.127-52.687-28.978-78.091-10.568-20.895-23.79-40.787-40.023-57.848-6.16-6.508-12.77-12.592-19.987-17.073-17.06-10.6-35.11-11.645-50.56-10.9-4.535.222-8.966.598-13.286 1.13-9.125 1.137-17.757 2.983-26.457 5.434-3.379.952-7.28 1.936-11.428 2.638-7.465 1.263-15.806 1.222-23.507-4.18-8.556-5.994-11.09-15.331-12.022-23.395-.339-2.946-.503-5.699-.506-8.106-.008-7.297.164-13.75.424-20.157.265-6.488.506-12.917.688-19.399.442-16.424.96-34.568-10.744-54.682-7.208-12.384-19.39-24.535-34.115-34.915-9.557-6.728-19.972-12.63-30.732-16.965-22.765-9.168-44.42-11.654-65.338-13.488-20.537-1.797-40.553-3.263-61.384-9.942-9.738-3.122-19.367-7.376-29.017-12.403-12.018-6.248-24.17-13.723-36.98-20.471-12.876-6.783-26.575-12.568-38.5-15.683" transform="translate(1119.332439, 577.752149) rotate(-120.000000) translate(-1119.332439, -577.752149) translate(701.559983, 145.850972)"/>
                                <path stroke-width=".634" d="M797.537 563.24c1.797-30.666 6.035-69.415-2.711-113.337-5.096-25.599-14.972-53.688-27.755-79.453-10.48-21.117-23.796-41.135-40.323-58.173-6.271-6.494-13.016-12.542-20.405-16.925-17.46-10.364-36-10.796-51.873-9.37-4.66.42-9.215 1.004-13.657 1.747-9.378 1.58-18.252 3.892-27.136 6.833-3.449 1.142-7.43 2.328-11.65 3.198-7.61 1.567-16.082 1.74-23.852-3.677-8.635-6.015-10.993-15.549-11.638-23.868-.236-3.034-.279-5.888-.165-8.391.346-7.592.857-14.393 1.453-21.154.602-6.846 1.18-13.637 1.707-20.476 1.314-17.333 2.724-36.4-8.547-57.303-6.93-12.856-19.017-25.39-33.77-35.933-9.574-6.835-20.072-12.756-30.96-17.016-23.034-9.009-45.053-10.93-66.412-12.145-20.953-1.19-41.445-1.98-62.705-8.227-9.944-2.923-19.758-7.03-29.567-11.954-12.218-6.117-24.524-13.524-37.41-20.327-12.95-6.838-26.637-12.823-38.65-16.32" transform="translate(1119.332439, 577.752149) rotate(-120.000000) translate(-1119.332439, -577.752149) translate(701.559983, 145.850972)"/>
                                <path stroke-width=".627" d="M801.152 577.504c3.587-32.4 9.488-72.319 1.863-117.362-4.42-26.11-13.817-54.691-26.535-80.817-10.389-21.337-23.8-41.483-40.624-58.496-6.378-6.48-13.261-12.494-20.82-16.776-17.86-10.131-36.892-9.949-53.188-7.842-4.785.62-9.462 1.409-14.024 2.363-9.635 2.025-18.75 4.803-27.819 8.233-3.518 1.33-7.577 2.72-11.87 3.755-7.757 1.874-16.356 2.263-24.196-3.17-8.717-6.037-10.896-15.768-11.257-24.342-.131-3.123-.054-6.077.176-8.676.702-7.886 1.553-15.036 2.483-22.151.94-7.206 1.858-14.356 2.728-21.554 2.186-18.24 4.484-38.232-6.349-59.922-6.656-13.33-18.646-26.247-33.427-36.954-9.59-6.94-20.17-12.88-31.187-17.065-23.305-8.85-45.69-10.207-67.49-10.803-21.367-.584-42.336-.693-64.023-6.512-10.15-2.723-20.15-6.684-30.117-11.503-12.42-5.988-24.878-13.326-37.837-20.183-13.029-6.894-26.701-13.077-38.806-16.957" transform="translate(1119.332439, 577.752149) rotate(-120.000000) translate(-1119.332439, -577.752149) translate(701.559983, 145.850972)"/>
                                <path stroke-width=".62" d="M803.925 593.034c5.379-34.133 12.934-75.226 6.437-121.386-3.747-26.623-12.662-55.692-25.314-82.18-10.297-21.559-23.806-41.831-40.923-58.821-6.489-6.467-13.509-12.445-21.237-16.629-18.26-9.894-37.783-9.1-54.503-6.313-4.91.82-9.71 1.815-14.392 2.98-9.89 2.47-19.246 5.714-28.5 9.633-3.588 1.519-7.727 3.112-12.092 4.316-7.9 2.178-16.63 2.78-24.54-2.67-8.798-6.056-10.8-15.984-10.876-24.811-.027-3.212.173-6.268.52-8.962 1.054-8.179 2.26-15.677 3.508-23.15 1.294-7.56 2.537-15.075 3.75-22.63 3.06-19.15 6.244-40.064-4.15-62.543-6.381-13.801-18.276-27.1-33.084-37.973-9.606-7.043-20.27-13.007-31.415-17.115-23.574-8.691-46.324-9.483-68.565-9.46-21.783.023-43.226.591-65.343-4.797-10.356-2.524-20.54-6.338-30.669-11.051-12.618-5.86-25.229-13.13-38.263-20.042-13.106-6.95-26.765-13.33-38.959-17.592" transform="translate(1119.332439, 577.752149) rotate(-120.000000) translate(-1119.332439, -577.752149) translate(701.559983, 145.850972)"/>
                                <path stroke-width=".614" d="M805.85 609.887c7.17-35.867 16.37-78.14 11.01-125.41-3.077-27.141-11.509-56.693-24.093-83.544-10.208-21.78-23.81-42.18-41.224-59.145-6.597-6.453-13.754-12.395-21.652-16.48-18.661-9.66-38.675-8.251-55.819-4.784-5.034 1.02-9.957 2.22-14.76 3.596-10.145 2.914-19.744 6.624-29.18 11.033-3.657 1.708-7.874 3.504-12.313 4.874-8.045 2.485-16.905 3.302-24.885-2.165-8.879-6.078-10.704-16.203-10.494-25.283.078-3.302.397-6.457.862-9.248 1.408-8.473 2.952-16.32 4.536-24.147 1.63-7.918 3.213-15.795 4.77-23.708 3.931-20.058 8.006-41.896-1.952-65.163-6.108-14.274-17.904-27.957-32.74-38.992-9.62-7.148-20.37-13.132-31.64-17.165-23.846-8.532-46.964-8.76-69.641-8.119-22.203.63-44.128 1.923-66.664-3.081-10.567-2.302-20.93-5.992-31.219-10.6-12.82-5.73-25.583-12.932-38.693-19.898-13.182-7.005-26.829-13.586-39.11-18.228" transform="translate(1119.332439, 577.752149) rotate(-120.000000) translate(-1119.332439, -577.752149) translate(701.559983, 145.850972)"/>
                                <path stroke-width=".607" d="M806.897 628.122c8.96-37.602 19.801-81.06 15.584-129.435-2.411-27.662-10.356-57.697-22.872-84.908-10.12-22.001-23.818-42.528-41.525-59.469-6.706-6.44-14-12.345-22.067-16.331-19.062-9.426-39.568-7.404-57.135-3.256-5.157 1.22-10.204 2.625-15.127 4.212-10.4 3.36-20.245 7.534-29.864 12.433-3.726 1.896-8.018 3.896-12.532 5.435-8.188 2.79-17.181 3.821-25.23-1.663-8.96-6.098-10.61-16.423-10.112-25.755.181-3.392.622-6.645 1.203-9.533 1.763-8.764 3.647-16.965 5.566-25.145 1.966-8.276 3.89-16.514 5.79-24.785 4.804-20.965 9.764-43.73.247-67.784-5.834-14.746-17.533-28.811-32.398-40.011-9.636-7.253-20.468-13.256-31.866-17.214-24.118-8.374-47.601-8.04-70.72-6.776-22.617 1.235-45.016 3.203-67.981-1.367-10.773-2.104-21.323-5.647-31.77-10.15-13.02-5.6-25.936-12.733-39.12-19.755-13.26-7.06-26.894-13.84-39.264-18.864" transform="translate(1119.332439, 577.752149) rotate(-120.000000) translate(-1119.332439, -577.752149) translate(701.559983, 145.850972)"/>
                                <path stroke-width=".6" d="M807.027 647.793c10.75-39.334 23.226-83.982 20.156-133.46-1.748-28.185-9.202-58.695-21.65-86.27-10.032-22.221-23.823-42.877-41.824-59.794-6.816-6.425-14.249-12.296-22.485-16.183-19.461-9.189-40.458-6.554-58.448-1.726-5.283 1.42-10.453 3.031-15.496 4.829-10.656 3.804-20.744 8.444-30.545 13.832-3.797 2.086-8.166 4.289-12.754 5.993-8.33 3.098-17.455 4.343-25.575-1.158-9.04-6.119-10.513-16.641-9.728-26.228.284-3.48.846-6.834 1.544-9.817 2.117-9.056 4.34-17.608 6.595-26.143 2.302-8.633 4.565-17.233 6.81-25.863 5.675-21.873 11.521-45.563 2.444-70.404-5.56-15.218-17.162-29.666-32.053-41.028-9.652-7.36-20.57-13.384-32.095-17.267-24.386-8.214-48.239-7.315-71.794-5.433-23.037 1.841-45.906 4.486-69.302.349-10.976-1.906-21.714-5.3-32.32-9.698-13.22-5.472-26.29-12.537-39.548-19.612-13.338-7.117-26.957-14.095-39.42-19.502" transform="translate(1119.332439, 577.752149) rotate(-120.000000) translate(-1119.332439, -577.752149) translate(701.559983, 145.850972)"/>
                                <path stroke-width=".594" d="M806.194 668.96c12.543-41.068 26.646-86.911 24.731-137.484-1.088-28.713-8.053-59.697-20.43-87.633-9.944-22.443-23.829-43.225-42.125-60.119-6.926-6.412-14.494-12.247-22.901-16.035-19.86-8.953-41.35-5.706-59.763-.197-5.408 1.62-10.7 3.436-15.864 5.445-10.911 4.25-21.244 9.356-31.227 15.232-3.866 2.275-8.311 4.681-12.973 6.553-8.473 3.404-17.73 4.861-25.92-.655-9.12-6.14-10.417-16.862-9.347-26.698.388-3.573 1.072-7.024 1.886-10.105 2.47-9.347 5.031-18.249 7.622-27.14 2.638-8.991 5.245-17.952 7.831-26.94 6.549-22.781 13.28-47.398 4.642-73.024-5.286-15.693-16.788-30.521-31.708-42.048-9.669-7.464-20.669-13.509-32.322-17.316-24.657-8.055-48.876-6.594-72.87-4.091-23.456 2.446-46.795 5.769-70.623 2.064-11.182-1.707-22.103-4.956-32.87-9.248-13.42-5.341-26.642-12.339-39.974-19.467-13.416-7.174-27.023-14.35-39.573-20.138" transform="translate(1119.332439, 577.752149) rotate(-120.000000) translate(-1119.332439, -577.752149) translate(701.559983, 145.850972)"/>
                                <path stroke-width=".587" d="M804.35 691.68c14.333-42.802 30.062-89.847 29.304-141.509-.429-29.244-6.903-60.698-19.209-88.995-9.856-22.664-23.834-43.575-42.424-60.444-7.035-6.398-14.74-12.198-23.318-15.887-20.262-8.719-42.24-4.858-61.078 1.333-5.531 1.818-10.947 3.84-16.232 6.06-11.166 4.694-21.744 10.268-31.908 16.631-3.937 2.466-8.457 5.074-13.194 7.114-8.614 3.708-18.004 5.381-26.265-.151-9.2-6.162-10.321-17.083-8.964-27.172.492-3.663 1.297-7.212 2.227-10.389 2.823-9.637 5.725-18.892 8.65-28.139 2.975-9.348 5.922-18.67 8.854-28.017 7.418-23.688 15.034-49.232 6.84-75.645-5.016-16.166-16.419-31.376-31.367-43.067-9.685-7.57-20.767-13.633-32.548-17.365-24.928-7.896-49.521-5.92-73.947-2.75-23.88 3.005-47.683 7.052-71.942 3.78-11.387-1.508-22.495-4.61-33.42-8.797-13.621-5.212-26.995-12.14-40.404-19.324-13.492-7.23-27.085-14.604-39.725-20.774" transform="translate(1119.332439, 577.752149) rotate(-120.000000) translate(-1119.332439, -577.752149) translate(701.559983, 145.850972)"/>
                                <path stroke-width=".581" d="M801.445 716.009c16.124-44.535 33.473-92.788 33.877-145.532.227-29.78-5.752-61.7-17.988-90.36-9.77-22.885-23.839-43.922-42.725-60.768-7.143-6.384-14.987-12.15-23.733-15.738-20.662-8.484-43.132-4.009-62.394 2.862-5.656 2.017-11.194 4.245-16.6 6.675-11.421 5.139-22.245 11.18-32.59 18.032-4.006 2.655-8.602 5.465-13.414 7.671-8.755 4.016-18.28 5.903-26.609.354-9.282-6.182-10.227-17.304-8.583-27.644.597-3.752 1.522-7.4 2.569-10.674 3.177-9.927 6.418-19.535 9.68-29.137 3.31-9.705 6.597-19.39 9.872-29.093 8.291-24.598 16.792-51.068 9.04-78.267-4.745-16.64-16.049-32.23-31.024-44.085-9.7-7.674-20.867-13.759-32.775-17.416-25.198-7.736-50.161-5.19-75.024-1.406-24.298 3.617-48.572 8.334-73.261 5.494-11.591-1.309-22.886-4.263-33.972-8.345-13.82-5.083-27.347-11.944-40.83-19.182-13.568-7.285-27.15-14.859-39.879-21.411" transform="translate(1119.332439, 577.752149) rotate(-120.000000) translate(-1119.332439, -577.752149) translate(701.559983, 145.850972)"/>
                                <path stroke-width=".567" d="M792.25 769.725c19.706-48.002 40.289-98.685 43.026-153.581 1.538-30.859-3.5-63.682-15.547-93.087-9.634-23.31-23.85-44.62-43.325-61.416-7.362-6.357-15.48-12.05-24.565-15.44-21.463-8.015-44.916-2.315-65.024 5.918-5.905 2.416-11.69 5.056-17.337 7.909-11.932 6.027-23.26 12.986-33.952 20.83-4.154 3.027-8.893 6.25-13.857 8.79-9.033 4.627-18.828 6.943-27.297 1.362-9.445-6.225-10.056-17.752-7.82-28.589.797-3.934 1.977-7.775 3.253-11.245 3.9-10.5 7.802-20.821 11.736-31.132 3.983-10.42 7.952-20.829 11.913-31.249 10.037-26.412 20.266-54.73 13.436-83.506-4.223-17.583-15.305-33.94-30.337-46.123-9.731-7.885-21.064-14.01-33.228-17.517-25.739-7.417-51.439-3.73-77.176 1.278-25.137 4.844-50.35 10.9-75.9 8.926-12.002-.913-23.669-3.572-35.074-7.445-14.22-4.824-28.053-11.548-41.685-18.894-13.723-7.396-27.278-15.367-40.186-22.683" transform="translate(1119.332439, 577.752149) rotate(-120.000000) translate(-1119.332439, -577.752149) translate(701.559983, 145.850972)"/>
                                <path stroke-width=".56" d="M785.852 799.226c21.496-49.735 43.692-101.64 47.598-157.606 2.193-31.404-2.337-64.688-14.325-94.45-9.537-23.535-23.855-44.968-43.625-61.74-7.471-6.344-15.727-12-24.982-15.292-21.862-7.778-45.807-1.466-66.339 7.447-6.03 2.617-11.936 5.462-17.704 8.525-12.187 6.472-23.758 13.905-34.634 22.23-4.223 3.22-9.033 6.653-14.076 9.35-9.165 4.949-19.104 7.463-27.644 1.865-9.525-6.245-9.953-17.972-7.437-29.06.903-4.025 2.2-7.963 3.595-11.53 4.245-10.793 8.495-21.465 12.764-32.131 4.32-10.778 8.63-21.548 12.934-32.325 10.908-27.322 22.034-56.572 15.633-86.128-3.943-18.06-14.932-34.794-29.992-47.142-9.748-7.99-21.165-14.134-33.456-17.566-26.009-7.258-52.077-3.002-78.25 2.62-25.557 5.457-51.24 12.182-77.223 10.64-12.206-.712-24.059-3.225-35.622-6.992-14.421-4.695-28.407-11.35-42.115-18.751-13.8-7.453-27.34-15.623-40.338-23.32" transform="translate(1119.332439, 577.752149) rotate(-120.000000) translate(-1119.332439, -577.752149) translate(701.559983, 145.850972)"/>
                                <path stroke-width=".554" d="M778.177 830.567c23.288-51.47 47.094-104.604 52.172-161.632 2.845-31.95-1.175-65.695-13.103-95.811-9.44-23.762-23.862-45.318-43.927-62.065-7.58-6.33-15.972-11.953-25.397-15.145-22.263-7.544-46.699-.618-67.654 8.976-6.153 2.816-12.183 5.867-18.073 9.14-12.44 6.918-24.254 14.826-35.314 23.631-4.292 3.413-9.181 7.04-14.298 9.91-9.308 5.245-19.378 7.984-27.988 2.367-9.606-6.265-9.851-18.193-7.054-29.531 1.009-4.115 2.422-8.152 3.936-11.814 4.593-11.086 9.189-22.11 13.793-33.13 4.655-11.136 9.306-22.268 13.953-33.402 11.782-28.23 23.801-58.411 17.833-88.749-3.664-18.537-14.562-35.649-29.65-48.16-9.763-8.095-21.264-14.26-33.682-17.616-26.28-7.1-52.718-2.272-79.328 3.962-25.974 6.07-52.13 13.463-78.541 12.357-12.411-.516-24.45-2.88-36.173-6.543-14.622-4.566-28.76-11.153-42.542-18.609-13.878-7.506-27.405-15.877-40.491-23.956" transform="translate(1119.332439, 577.752149) rotate(-120.000000) translate(-1119.332439, -577.752149) translate(701.559983, 145.850972)"/>
                                <path stroke-width=".547" d="M769.17 863.802c25.08-53.203 50.497-107.569 56.747-165.655 6.252-58.086-9.884-121.596-56.108-159.565-7.69-6.315-16.22-11.903-25.814-14.997-22.664-7.307-47.59.233-68.97 10.506-19.541 9.39-37.872 21.104-54.436 34.787-12.303 10.165-29.404 22.066-42.852 13.34-13.202-8.567-8.525-27.986-2.395-42.105 9.932-22.867 19.863-45.737 29.796-68.604 12.654-29.139 25.57-60.253 20.03-91.368-5.575-31.319-31.276-58.497-63.215-66.847-52.459-13.716-105.913 20.742-160.265 19.376-44.2-1.112-83.59-25.552-120.339-49.149" transform="translate(1119.332439, 577.752149) rotate(-120.000000) translate(-1119.332439, -577.752149) translate(701.559983, 145.850972)"/>
                            </g>
                        </g>
                    </g>
                    <path fill="#2BFF2B" d="M1866 525L2706 529 2706 1257 1938 1069 2070.5 837z" opacity=".065"/>
                    <path fill="url(#04pts51ord)" d="M1344.5 1321c219.126 11.837 345.293 1.17 378.5-32l350.5-344c47.979-47.925 54.661-124.6 8.848-174.646-24.656-26.917-58.182-40.354-91.71-40.354-31.777 0-63.554 12.106-87.794 36.318C1602.948 1065.106 1416.834 1250 1344.5 1321z"/>
                    <path fill="#FFF" d="M1443.5 491.5c51.783-24.623 82.842-44.377 93.177-59.261 45.627-65.77 136.59-71.725 190.418-17.87l351.78 351.962c48.167 48.15 48.167 126.247 0 174.397L1902.694 1117c48.458-48.483 48.458-127.122 0-175.647L1443.5 491.5z"/>
                    <circle cx="1580" cy="464" r="241" fill="#00BE00" filter="url(#9a07dkhsge)" opacity=".101"/>
                </g>
            </g>
        </g>
    </g>
</svg>
