<svg xmlns="http://www.w3.org/2000/svg" width="20" height="20" viewBox="0 0 20 20">
    <g fill="none" fill-rule="evenodd">
        <g>
            <g>
                <g>
                    <path fill="#00BE00" d="M0 10C0 4.477 4.477 0 10 0s10 4.477 10 10-4.477 10-10 10S0 15.523 0 10z" transform="translate(-338.000000, -190.000000) translate(338.000000, 186.000000) translate(0.000000, 4.000000)"/>
                    <path fill="#FFF" fill-rule="nonzero" d="M8.795 12.133l5.376-5.63c.323-.338.847-.338 1.17 0 .323.34.323.888 0 1.226l-6.546 6.854-3.803-3.98c-.323-.34-.323-.888 0-1.226.324-.338.847-.338 1.17 0l2.633 2.756z" transform="translate(-338.000000, -190.000000) translate(338.000000, 186.000000) translate(0.000000, 4.000000)"/>
                </g>
            </g>
        </g>
    </g>
</svg>
