<svg xmlns="http://www.w3.org/2000/svg" xmlns:xlink="http://www.w3.org/1999/xlink" width="189" height="30" viewBox="0 0 189 30">
    <defs>
        <path id="70kehyg1ea" d="M0 0L15 0 15 12.18 0 12.18z"/>
        <path id="5mhhuqbeyc" d="M0 0L12.18 0 12.18 15 0 15z"/>
        <path id="tma0itkaxe" d="M0 0L12.181 0 12.181 15 0 15z"/>
        <path id="vaxxetihtg" d="M0 0L15 0 15 12.181 0 12.181z"/>
        <path id="xnt2o7q1pi" d="M0 0L13.958 0 13.958 19.119 0 19.119z"/>
    </defs>
    <g fill="none" fill-rule="evenodd">
        <g>
            <g>
                <g>
                    <path fill="#00A500" d="M16.783 7.869L9.687.774c-1-1-2.654-1.019-3.634 0-.95.987-.94 2.557.034 3.53l7.13 7.13c.985.985 2.582.985 3.566 0 .985-.984.985-2.58 0-3.565M23.914 25.696l-7.131-7.13c-.985-.986-2.58-.986-3.565 0-.985.983-.985 2.58 0 3.564l7.13 7.132c.985.984 2.58.984 3.566 0 .984-.985.984-2.58 0-3.566" transform="translate(-865.000000, -75.000000) translate(865.000000, 75.000000)"/>
                    <g transform="translate(-865.000000, -75.000000) translate(865.000000, 75.000000) translate(9.652224, 0.000000)">
                        <mask id="a8gciuoo2b" fill="#fff">
                            <use xlink:href="#70kehyg1ea"/>
                        </mask>
                        <path fill="#00BE00" d="M14.262.738c-.985-.985-2.581-.985-3.566 0L3.566 7.87c-.985.985-2.581.985-3.566 0l3.578 3.578c.978.978 2.562.978 3.54 0l7.144-7.143c.984-.985.984-2.58 0-3.566" mask="url(#a8gciuoo2b)"/>
                    </g>
                    <path fill="#00A500" d="M25.696 6.087l-7.13 7.13c-.986.985-.986 2.581 0 3.565.984.985 2.58.985 3.565 0l7.13-7.13c.985-.985.985-2.581 0-3.565-.984-.985-2.58-.985-3.565 0" transform="translate(-865.000000, -75.000000) translate(865.000000, 75.000000)"/>
                    <g transform="translate(-865.000000, -75.000000) translate(865.000000, 75.000000) translate(17.819660, 9.651404)">
                        <mask id="e6yziencdd" fill="#fff">
                            <use xlink:href="#5mhhuqbeyc"/>
                        </mask>
                        <path fill="#00BE00" d="M4.311 3.566l7.131 7.13c.985.985.985 2.581 0 3.566-.984.984-2.58.984-3.565 0L.733 7.118c-.977-.977-.977-2.562 0-3.54L4.311 0c-.985.985-.985 2.58 0 3.566" mask="url(#e6yziencdd)"/>
                    </g>
                    <path fill="#00A500" d="M4.304 23.913l7.13-7.13c.986-.985.986-2.581 0-3.565-.983-.985-2.58-.985-3.564 0l-7.132 7.13c-.984.984-.984 2.581 0 3.565.985.985 2.58.985 3.566 0" transform="translate(-865.000000, -75.000000) translate(865.000000, 75.000000)"/>
                    <g transform="translate(-865.000000, -75.000000) translate(865.000000, 75.000000) translate(0.000000, 5.348309)">
                        <mask id="opjkah6n7f" fill="#fff">
                            <use xlink:href="#tma0itkaxe"/>
                        </mask>
                        <path fill="#00BE00" d="M7.87 11.434L.738 4.304c-.985-.985-.985-2.581 0-3.565.984-.985 2.58-.985 3.565 0l7.143 7.143c.978.977.978 2.562 0 3.54L7.87 15c.985-.985.985-2.58 0-3.566" mask="url(#opjkah6n7f)"/>
                    </g>
                    <g transform="translate(-865.000000, -75.000000) translate(865.000000, 75.000000) translate(5.348289, 17.819332)">
                        <mask id="i137s3r8vh" fill="#fff">
                            <use xlink:href="#vaxxetihtg"/>
                        </mask>
                        <path fill="#00BE00" d="M15 4.311L11.422.733c-.978-.977-2.563-.977-3.54 0L.737 7.877c-.985.984-.984 2.58 0 3.565.985.985 2.581.985 3.566 0l7.13-7.13c.985-.985 2.581-.985 3.566 0" mask="url(#i137s3r8vh)"/>
                    </g>
                </g>
                <g>
                    <path fill="#1A1447" d="M114.514 18.81L107.975.833c-.081-.225-.294-.375-.532-.375h-3.767c-.673 0-1.276.424-1.507 1.061l-6.29 17.29c-.135.374.138.77.533.77h2.284c.675 0 1.277-.425 1.51-1.063L105.184 4.8l2.75 7.523h-3.18c-.668 0-1.266.418-1.503 1.048l-.636 1.702c-.14.374.134.773.53.773h6.07l.973 2.67c.232.637.834 1.061 1.508 1.061h2.285c.393 0 .668-.395.532-.768" transform="translate(-865.000000, -75.000000) translate(865.000000, 75.000000) translate(39.000000, 5.000000)"/>
                    <path fill="#191248" d="M132.726.459h-1.476c-.89 0-1.61.725-1.61 1.622v11.09L120.871.7c-.106-.151-.28-.241-.463-.241h-1.927c-.888 0-1.61.725-1.61 1.622v16.925c0 .315.255.572.57.572h1.475c.89 0 1.61-.725 1.61-1.621V6.865l8.457 12.03c.302.427.791.683 1.313.683h2.43c.313 0 .568-.257.568-.572V1.03c0-.316-.255-.571-.568-.571" transform="translate(-865.000000, -75.000000) translate(865.000000, 75.000000) translate(39.000000, 5.000000)"/>
                    <path fill="#231F20" d="M59.9 17.115c-1.882-1.922-2.808-4.286-2.808-7.116 0-2.829.926-5.22 2.808-7.114C61.78.961 64.153 0 67.015 0c3.24 0 6.171 1.54 7.874 4.013.19.275.103.654-.183.82l-1.558.91c-.619.363-1.393.228-1.88-.3-1.025-1.111-2.528-1.724-4.253-1.724-1.854 0-3.353.539-4.498 1.72-1.118 1.182-1.69 2.693-1.69 4.56 0 1.841.572 3.353 1.69 4.534 1.145 1.18 2.644 1.759 4.498 1.759 1.713 0 3.24-.644 4.253-1.733.49-.525 1.263-.664 1.882-.302l1.556.91c.286.167.372.545.184.82C73.19 18.459 70.282 20 67.015 20c-2.862 0-5.234-.962-7.115-2.885M15.55.459c-.53 0-1.023.26-1.324.697L9.765 7.645c-.24.347-.75.343-.985-.007L4.174.713C4.068.555 3.89.46 3.702.46L1.61.459C.72.459 0 1.184 0 2.08v16.925c0 .315.254.572.567.572h1.477c.888 0 1.61-.725 1.61-1.621V6.867l4.594 6.435c.495.712 1.543.712 2.039 0l4.594-6.437v12.14c0 .316.255.573.568.573h1.477c.888 0 1.61-.725 1.61-1.621V1.03c0-.316-.255-.571-.569-.571H15.55zM26.066 15.85H36.21c.314 0 .567.256.567.572v1.537c0 .894-.719 1.62-1.605 1.62h-12.28c-.313 0-.566-.256-.566-.572V2.077c0-.895.718-1.619 1.605-1.619H36.21c.314 0 .567.256.567.572v1.536c0 .892-.719 1.617-1.605 1.617h-9.106V15.85z" transform="translate(-865.000000, -75.000000) translate(865.000000, 75.000000) translate(39.000000, 5.000000)"/>
                    <path fill="#231F20" d="M29.033 8.178h6.384c.313 0 .566.257.566.571v1.523c0 .893-.718 1.618-1.605 1.618h-6.453c-.275 0-.497-.224-.497-.501V9.797c0-.894.719-1.619 1.605-1.619M54.592 18.352l-3.35-5.753c2.195-1.01 3.523-3.428 3.523-5.803 0-1.749-.623-3.251-1.844-4.48C51.701 1.086 50.211.46 48.45.46h-6.888c-.888 0-1.608.725-1.608 1.62v16.927c0 .316.253.572.567.572h1.563c.89 0 1.61-.726 1.61-1.622V4.166l4.504.003c1.318 0 2.408 1.171 2.408 2.628 0 1.455-1.09 2.655-2.408 2.655h-1.483c-.89 0-1.61.726-1.61 1.62v1.516c0 .317.255.573.568.573h1.9l3.23 5.609c.288.5.819.808 1.392.808h2.178c.413 0 .67-.45.22-1.226" transform="translate(-865.000000, -75.000000) translate(865.000000, 75.000000) translate(39.000000, 5.000000)"/>
                    <path fill="#1A1447" d="M91.544.459h1.521c.313 0 .567.255.567.57v16.93c0 .895-.719 1.619-1.606 1.619h-1.52c-.314 0-.567-.256-.567-.571v-7.35h-8.895v6.303c0 .894-.718 1.618-1.605 1.618H77.87c-.312 0-.567-.256-.567-.571V2.077c0-.895.72-1.618 1.606-1.618h1.568c.313 0 .566.255.566.57v7.022h8.895V2.077c0-.895.72-1.618 1.605-1.618" transform="translate(-865.000000, -75.000000) translate(865.000000, 75.000000) translate(39.000000, 5.000000)"/>
                    <g transform="translate(-865.000000, -75.000000) translate(865.000000, 75.000000) translate(39.000000, 5.000000) translate(136.041667, 0.459020)">
                        <mask id="eev6uk3ccj" fill="#fff">
                            <use xlink:href="#xnt2o7q1pi"/>
                        </mask>
                        <path fill="#191248" d="M13.959.572v1.537c0 .895-.72 1.62-1.61 1.62H8.836v13.768c0 .896-.72 1.622-1.61 1.622H5.665c-.314 0-.569-.256-.569-.573V3.73H.568C.255 3.73 0 3.474 0 3.158V1.62C0 .725.72 0 1.61 0H13.39c.314 0 .568.255.568.572" mask="url(#eev6uk3ccj)"/>
                    </g>
                </g>
            </g>
        </g>
    </g>
</svg>
